<?xml version="1.0" standalone="no"?>
<!DOCTYPE svg PUBLIC "-//W3C//DTD SVG 20010904//EN"
 "http://www.w3.org/TR/2001/REC-SVG-20010904/DTD/svg10.dtd">
<svg version="1.0" xmlns="http://www.w3.org/2000/svg"
 width="96.000000pt" height="96.000000pt" viewBox="0 0 96.000000 96.000000"
 preserveAspectRatio="xMidYMid meet">

<g transform="translate(0.000000,96.000000) scale(0.100000,-0.100000)"
fill="#d40025" stroke="none">
<path d="M165 948 c-3 -7 -4 -222 -3 -478 l3 -465 315 0 315 0 0 475 0 475
-313 3 c-245 2 -314 0 -317 -10z m210 -93 c50 -49 15 -135 -55 -135 -41 0 -80
39 -80 80 0 41 39 80 80 80 19 0 40 -9 55 -25z m101 14 c10 -17 -13 -36 -27
-22 -12 12 -4 33 11 33 5 0 12 -5 16 -11z m80 0 c10 -17 -13 -36 -27 -22 -12
12 -4 33 11 33 5 0 12 -5 16 -11z m80 0 c10 -17 -13 -36 -27 -22 -12 12 -4 33
11 33 5 0 12 -5 16 -11z m124 -89 c0 -13 -7 -20 -20 -20 -17 0 -20 -7 -20 -40
0 -33 3 -40 20 -40 13 0 20 -7 20 -20 0 -13 -7 -20 -20 -20 -19 0 -20 -7 -20
-240 0 -233 1 -240 20 -240 13 0 20 -7 20 -20 0 -13 -7 -20 -20 -20 -17 0 -20
-7 -20 -40 0 -33 -3 -40 -20 -40 -20 0 -20 7 -20 360 l0 360 -55 0 c-64 0 -97
-14 -140 -60 -49 -52 -74 -60 -185 -60 -93 0 -100 1 -100 20 0 19 7 20 95 20
104 0 133 9 175 55 51 56 77 65 188 65 95 0 102 -1 102 -20z m-465 -370 l29
-30 -31 -31 c-17 -18 -36 -28 -42 -25 -12 8 -15 98 -4 109 11 12 18 8 48 -23z
m300 -310 c0 -12 -20 -16 -109 -18 -106 -3 -136 4 -121 27 4 8 44 11 118 9 92
-2 112 -6 112 -18z"/>
</g>
</svg>
